<?xml version="1.0" encoding="UTF-8"?>
<svg id="Layer_1" data-name="Layer 1" xmlns="http://www.w3.org/2000/svg" viewBox="0 0 960 960">
  <defs>
    <style>
      .cls-1 {
        fill: rgba(216, 216, 216, 0);
      }

      .cls-1, .cls-2 {
        stroke-width: 0px;
      }

      .cls-2 {
        fill: #00dc5a;
        fill-rule: evenodd;
      }
    </style>
  </defs>
  <g id="_画板" data-name="画板">
    <g id="logo-顶导">
      <rect id="_矩形" data-name="矩形" class="cls-1" x="36.7" y="339.63" width="885.71" height="280.84"/>
      <path id="_形状" data-name="形状" class="cls-2" d="M476.65,615.64c0,1.27,1.11,2.3,2.48,2.3h59.1c1.37,0,2.48-1.03,2.48-2.3v-266.04c0-1.27-1.11-2.3-2.48-2.3h-59.1c-1.37,0-2.48,1.03-2.48,2.3v266.04ZM42.2,615.64c0,1.27,1.11,2.3,2.48,2.3h59.1c1.37,0,2.48-1.03,2.48-2.3v-167.48c0-1.27-1.11-2.3-2.48-2.3h-59.1c-1.37,0-2.48,1.03-2.48,2.3v167.48ZM300.2,559.62c-42.81,7.78-84.06-21.59-91.96-65.47-7.9-43.88,20.5-85.91,63.31-93.69,42.81-7.78,84.06,21.59,91.96,65.47,7.9,43.88-20.5,85.91-63.31,93.69ZM437.65,572.22l-29.24-23.58c-.6-.49-1-1.15-1.15-1.87-.15-.72-.06-1.49.3-2.17,13.98-26.4,19.56-57.51,13.86-89.19-13.5-75.02-85.14-124.81-160.01-111.2-74.87,13.61-124.61,85.45-111.11,160.48,13.5,75.02,85.14,124.81,160.01,111.2,20.81-3.78,39.68-12.08,55.79-23.68,1.19-.86,2.8-.83,3.94.09l31.36,25.29c1.06.86,2.64.66,3.51-.44l33.06-41.39c.88-1.1.73-2.69-.34-3.54ZM919.94,347.3h-59.1c-1.37,0-2.48,1.03-2.48,2.3v266.05c0,1.27,1.11,2.3,2.48,2.3h59.1c1.37,0,2.48-1.03,2.48-2.3v-266.05c0-1.27-1.11-2.3-2.48-2.3ZM74.23,341.99c-20.72,0-37.52,16.88-37.52,37.71s16.8,37.71,37.52,37.71,37.52-16.88,37.52-37.71-16.8-37.71-37.52-37.71ZM827.08,347.3h-62.97c-1.08,0-2.08.55-2.59,1.44l-58.51,104.55s-.32.59-.79.75l-.21.04c-.44-.01-.78-.45-.93-.67l-.07-.12h0l-58.51-104.55c-.51-.89-1.51-1.44-2.59-1.44h-62.97c-1.68,0-3.62,1.74-2.24,4.35l93.59,158.24c.9,1.53,1.37,3.27,1.37,5.04v100.25c0,1.52,1.23,2.76,2.74,2.76h59.22c1.51,0,2.74-1.23,2.74-2.76v-100.25c0-1.77.47-3.51,1.37-5.04l93.59-158.24c1.38-2.6-.55-4.35-2.24-4.35Z"/>
    </g>
  </g>
</svg>